<?xml version="1.0" encoding="utf-8"?>
<!-- Generator: Adobe Illustrator 25.2.1, SVG Export Plug-In . SVG Version: 6.00 Build 0)  -->
<svg version="1.1" id="Ebene_1" xmlns="http://www.w3.org/2000/svg" xmlns:xlink="http://www.w3.org/1999/xlink" x="0px" y="0px"
	 viewBox="0 0 160.9 191.7" style="enable-background:new 0 0 160.9 191.7;" xml:space="preserve">
<style type="text/css">
	
		.st0{clip-path:url(#SVGID_2_);fill:none;stroke:#2B363D;stroke-width:12.551;stroke-linecap:round;stroke-linejoin:round;stroke-miterlimit:10;}
	.st1{clip-path:url(#SVGID_2_);fill:#2B363D;}
	
		.st2{clip-path:url(#SVGID_4_);fill:none;stroke:#2B363D;stroke-width:12.551;stroke-linecap:round;stroke-linejoin:round;stroke-miterlimit:10;}
	.st3{clip-path:url(#SVGID_4_);fill:#2B363D;}
</style>
<g>
	<defs>
		<rect id="SVGID_1_" width="160.9" height="191.7"/>
	</defs>
	<clipPath id="SVGID_2_">
		<use xlink:href="#SVGID_1_"  style="overflow:visible;"/>
	</clipPath>
	<path class="st0" d="M145.2,77.5c-13.6-15.1-37-16.3-52.1-2.7L80.4,86.1L67.9,74.7c-15.1-13.6-38.6-12.3-52.2,2.7
		C2.1,92.6,3.4,116,18.5,129.6l62,55.8l62-55.8C157.5,116,158.8,92.6,145.2,77.5z"/>
	<path class="st1" d="M67.7,42.3l-12-12c-1.3-1.3-1.3-3.4,0-4.7c1.3-1.3,3.4-1.3,4.7,0l12,12c1.4-9.9-1.7-20.3-9.3-28
		C54.4,1,42.2-1.8,31.2,1.1c-2.9,11-0.1,23.2,8.5,31.9C47.3,40.6,57.8,43.7,67.7,42.3"/>
	<path class="st1" d="M82.8,57.9c0.1,0,0.3,0,0.4,0c3.5,0,6.4-2.7,6.6-6.2c0.8-13,8.3-27.7,26.7-29.8c3.6-0.4,6.3-3.7,5.8-7.4
		c-0.4-3.6-3.7-6.3-7.4-5.8c-21.9,2.5-37,19-38.5,42.1C76.3,54.5,79.1,57.6,82.8,57.9"/>
</g>
<g>
	<defs>
		<rect id="SVGID_3_" width="160.9" height="191.7"/>
	</defs>
	<clipPath id="SVGID_4_">
		<use xlink:href="#SVGID_3_"  style="overflow:visible;"/>
	</clipPath>
	<path class="st2" d="M145.2,77.5c-13.6-15.1-37-16.3-52.1-2.7L80.4,86.1L67.9,74.7c-15.1-13.6-38.6-12.3-52.2,2.7
		C2.1,92.6,3.4,116,18.5,129.6l62,55.8l62-55.8C157.5,116,158.8,92.6,145.2,77.5z"/>
	<path class="st3" d="M67.7,42.3l-12-12c-1.3-1.3-1.3-3.4,0-4.7c1.3-1.3,3.4-1.3,4.7,0l12,12c1.4-9.9-1.7-20.3-9.3-28
		C54.4,1,42.2-1.8,31.2,1.1c-2.9,11-0.1,23.2,8.5,31.9C47.3,40.6,57.8,43.7,67.7,42.3"/>
	<path class="st3" d="M82.8,57.9c0.1,0,0.3,0,0.4,0c3.5,0,6.4-2.7,6.6-6.2c0.8-13,8.3-27.7,26.7-29.8c3.6-0.4,6.3-3.7,5.8-7.4
		c-0.4-3.6-3.7-6.3-7.4-5.8c-21.9,2.5-37,19-38.5,42.1C76.3,54.5,79.1,57.6,82.8,57.9"/>
</g>
</svg>
