<?xml version="1.0" encoding="utf-8"?>
<!-- Generator: Adobe Illustrator 25.2.1, SVG Export Plug-In . SVG Version: 6.00 Build 0)  -->
<svg version="1.1" id="Ebene_1" xmlns="http://www.w3.org/2000/svg" xmlns:xlink="http://www.w3.org/1999/xlink" x="0px" y="0px"
	 viewBox="0 0 257.8 171.7" style="enable-background:new 0 0 257.8 171.7;" xml:space="preserve">
<style type="text/css">
	.st0{clip-path:url(#SVGID_2_);fill:#2B363D;}
</style>
<g>
	<defs>
		<rect id="SVGID_1_" width="257.8" height="171.7"/>
	</defs>
	<clipPath id="SVGID_2_">
		<use xlink:href="#SVGID_1_"  style="overflow:visible;"/>
	</clipPath>
	<path class="st0" d="M14.5,120.9c-4.5,0-8.1,3.6-8.1,8.1s3.6,8.1,8.1,8.1h192.3c4.5,0,8.1-3.6,8.1-8.1s-3.6-8.1-8.1-8.1H14.5z
		 M206.8,143.5H14.5C6.5,143.5,0,137,0,129c0-8,6.5-14.5,14.5-14.5h192.3c8,0,14.5,6.5,14.5,14.5C221.3,137,214.8,143.5,206.8,143.5
		"/>
	<path class="st0" d="M205.7,120.9H15.6v-3.2c0-22.7,8.1-44.6,22.8-61.8c1.2-1.3,3.2-1.5,4.5-0.3c1.3,1.2,1.5,3.2,0.3,4.5
		c-13,15.2-20.5,34.4-21.2,54.4h177.1c-1.7-47.4-40.8-85.4-88.6-85.4c-16,0-31.6,4.3-45.3,12.4c-1.5,0.9-3.5,0.4-4.4-1.1
		c-0.9-1.5-0.4-3.5,1.1-4.4c14.6-8.7,31.4-13.3,48.6-13.3c52.4,0,95,42.6,95,95V120.9z"/>
	<path class="st0" d="M110.7,6.4c-4.9,0-8.8,4.6-8.8,10.2c0,2.4,0.7,4.6,2,6.4c4.8-0.4,8.9-0.4,13.7,0c1.3-1.8,2-4,2-6.4
		C119.5,11,115.5,6.4,110.7,6.4 M118.9,29.5c-0.1,0-0.2,0-0.3,0c-5.6-0.5-10.3-0.5-15.9,0c-1,0.1-1.9-0.3-2.6-1
		c-3-3.2-4.7-7.4-4.7-11.9c0-9.1,6.8-16.6,15.2-16.6c8.4,0,15.2,7.4,15.2,16.6c0,4.5-1.7,8.8-4.7,11.9
		C120.6,29.1,119.8,29.5,118.9,29.5"/>
	<path class="st0" d="M200.9,104H93.1c-1.8,0-3.2-1.4-3.2-3.2c0-1.8,1.4-3.2,3.2-3.2h107.8c1.8,0,3.2,1.4,3.2,3.2
		C204.1,102.6,202.7,104,200.9,104"/>
	<path class="st0" d="M182.5,56.4h-6.4c-1.8,0-3.2-1.4-3.2-3.2c0-1.8,1.4-3.2,3.2-3.2h6.4c1.8,0,3.2,1.4,3.2,3.2
		C185.7,54.9,184.3,56.4,182.5,56.4"/>
	<path class="st0" d="M220.7,56.4h-6.4c-1.8,0-3.2-1.4-3.2-3.2c0-1.8,1.4-3.2,3.2-3.2h6.4c1.8,0,3.2,1.4,3.2,3.2
		C223.9,54.9,222.5,56.4,220.7,56.4"/>
	<path class="st0" d="M211,79.5h-6.4c-1.8,0-3.2-1.4-3.2-3.2c0-1.8,1.4-3.2,3.2-3.2h6.4c1.8,0,3.2,1.4,3.2,3.2
		C214.2,78,212.8,79.5,211,79.5"/>
	<path class="st0" d="M249.2,79.5h-6.4c-1.8,0-3.2-1.4-3.2-3.2c0-1.8,1.4-3.2,3.2-3.2h6.4c1.8,0,3.2,1.4,3.2,3.2
		C252.4,78,250.9,79.5,249.2,79.5"/>
	<path class="st0" d="M216.4,106.7H210c-1.8,0-3.2-1.4-3.2-3.2c0-1.8,1.4-3.2,3.2-3.2h6.4c1.8,0,3.2,1.4,3.2,3.2
		C219.6,105.3,218.2,106.7,216.4,106.7"/>
	<path class="st0" d="M254.6,106.7h-6.4c-1.8,0-3.2-1.4-3.2-3.2c0-1.8,1.4-3.2,3.2-3.2h6.4c1.8,0,3.2,1.4,3.2,3.2
		C257.8,105.3,256.3,106.7,254.6,106.7"/>
	<path class="st0" d="M58.2,143.5c-6,0-10.9,4.9-10.9,10.9c0,6,4.9,10.9,10.9,10.9c6,0,10.9-4.9,10.9-10.9
		C69.1,148.4,64.2,143.5,58.2,143.5 M58.2,171.7c-9.5,0-17.3-7.7-17.3-17.3c0-9.5,7.7-17.3,17.3-17.3s17.3,7.7,17.3,17.3
		C75.5,163.9,67.8,171.7,58.2,171.7"/>
	<path class="st0" d="M163.1,143.5c-6,0-10.9,4.9-10.9,10.9c0,6,4.9,10.9,10.9,10.9c6,0,10.9-4.9,10.9-10.9
		C174,148.4,169.1,143.5,163.1,143.5 M163.1,171.7c-9.5,0-17.3-7.7-17.3-17.3c0-9.5,7.7-17.3,17.3-17.3c9.5,0,17.3,7.7,17.3,17.3
		C180.4,163.9,172.6,171.7,163.1,171.7"/>
</g>
</svg>
