<?xml version="1.0" encoding="utf-8"?>
<!-- Generator: Adobe Illustrator 25.2.1, SVG Export Plug-In . SVG Version: 6.00 Build 0)  -->
<svg version="1.1" id="Ebene_1" xmlns="http://www.w3.org/2000/svg" xmlns:xlink="http://www.w3.org/1999/xlink" x="0px" y="0px"
	 viewBox="0 0 352.4 271.6" style="enable-background:new 0 0 352.4 271.6;" xml:space="preserve">
<style type="text/css">
	.st0{clip-path:url(#SVGID_2_);fill:#FFFFFF;}
</style>
<g>
	<defs>
		<rect id="SVGID_1_" y="0" width="352.4" height="271.6"/>
	</defs>
	<clipPath id="SVGID_2_">
		<use xlink:href="#SVGID_1_"  style="overflow:visible;"/>
	</clipPath>
	<path class="st0" d="M96.3,233.7c-0.5,0-1-0.1-1.4-0.2c-27.4-9.1-45.6-23.9-56.2-35c-19-7.8-23.3-28.2-23-40.1
		C1.2,147.3,1.2,128.7,3.6,118.6C-6.1,100.5,6.9,73.2,7.5,72c0.8-1.6,2.4-2.6,4.3-2.5c1.8,0.1,3.4,1.2,4,2.9
		c2,5.4,31.8,30.2,60.1,47c10,6,17.8,11.9,23.8,18.2c1.7,1.8,1.6,4.6-0.2,6.4c-1.8,1.7-4.6,1.6-6.4-0.2
		c-5.4-5.7-12.6-11.2-21.9-16.7C50.3,114.7,24.1,95.2,12.7,83c-3,8.6-6.5,23.2-0.5,32.5c0.7,1.1,0.9,2.5,0.5,3.7
		c-0.3,0.9-6.4,22.4,10.1,33.1c1.4,0.9,2.2,2.5,2,4.2c-0.1,1.1-2.2,26.2,18,33.8c0.6,0.2,1.2,0.6,1.7,1.1
		c9.8,10.4,27,24.6,53.2,33.4c2.4,0.8,3.6,3.3,2.8,5.7C99.9,232.5,98.2,233.7,96.3,233.7"/>
	<path class="st0" d="M50.3,147c-0.4,0-0.9-0.1-1.4-0.2c-31.6-9.9-43.6-25.4-44.1-26.1c-1.5-2-1.1-4.8,0.9-6.3
		c2-1.5,4.8-1.1,6.3,0.8c0.2,0.3,11.2,14,39.6,23c2.4,0.7,3.7,3.3,2.9,5.6C53.9,145.8,52.2,147,50.3,147"/>
	<path class="st0" d="M62.5,179c-0.4,0-0.7,0-1.1-0.1c-25.3-6.3-42.9-18.5-43.6-19c-2-1.4-2.5-4.2-1.1-6.3c1.4-2,4.2-2.5,6.3-1.1
		c0.2,0.1,17.1,11.7,40.7,17.6c2.4,0.6,3.9,3,3.3,5.5C66.3,177.6,64.5,179,62.5,179"/>
	<path class="st0" d="M78.7,208.1c-24.9-1.3-39.1-9.3-39.7-9.6c-2.2-1.2-2.9-4-1.7-6.1c1.2-2.2,4-2.9,6.1-1.7
		c0.2,0.1,13.2,7.3,35.4,8.4c2.5,0.1,4.4,2.2,4.3,4.7C83,206.3,81.1,208.1,78.7,208.1"/>
	<path class="st0" d="M105.3,122.5c-2.5,0-4.5,2-4.5,4.5v131.2c0,2.5,2,4.5,4.5,4.5h141.8c2.5,0,4.5-2,4.5-4.5V127
		c0-2.5-2-4.5-4.5-4.5H105.3z M247.1,271.6H105.3c-7.4,0-13.5-6-13.5-13.5V127c0-7.4,6-13.5,13.5-13.5h141.8c7.4,0,13.5,6,13.5,13.5
		v131.2C260.6,265.6,254.5,271.6,247.1,271.6"/>
	<path class="st0" d="M256.1,233.7c-1.9,0-3.6-1.2-4.3-3.1c-0.8-2.4,0.5-4.9,2.8-5.7c26.2-8.8,43.4-23,53.2-33.4
		c0.5-0.5,1-0.9,1.7-1.1c20.3-7.7,18.1-32.8,18-33.9c-0.2-1.7,0.6-3.3,2-4.2c16.4-10.7,10.3-32.2,10.1-33.1
		c-0.4-1.3-0.2-2.6,0.5-3.7c6-9.3,2.5-23.9-0.5-32.5c-11.4,12.2-37.6,31.7-58.5,44.1c-9.3,5.5-16.4,11-21.9,16.7
		c-1.7,1.8-4.6,1.9-6.4,0.2c-1.8-1.7-1.9-4.6-0.2-6.4c6-6.3,13.8-12.3,23.8-18.2c28.2-16.8,58.1-41.5,60.1-47c0.6-1.7,2.2-2.8,4-2.9
		c1.7-0.1,3.5,0.9,4.3,2.5c0.6,1.2,13.6,28.5,3.9,46.6c2.4,10.1,2.3,28.7-12.1,39.7c0.3,11.9-4,32.3-23,40.1
		c-10.6,11.1-28.8,25.9-56.2,35C257,233.6,256.5,233.7,256.1,233.7"/>
	<path class="st0" d="M302.1,147c-1.9,0-3.7-1.2-4.3-3.1c-0.7-2.4,0.6-4.9,2.9-5.6c28.9-9.1,39.5-22.8,39.6-22.9
		c1.5-2,4.3-2.4,6.3-0.9c2,1.5,2.4,4.3,0.9,6.3c-0.5,0.7-12.5,16.2-44.1,26.1C303,146.9,302.6,147,302.1,147"/>
	<path class="st0" d="M289.9,179c-2,0-3.8-1.4-4.4-3.4c-0.6-2.4,0.9-4.8,3.3-5.5c23.6-5.9,40.5-17.5,40.7-17.6
		c2-1.4,4.8-0.9,6.3,1.1c1.4,2,0.9,4.8-1.1,6.3c-0.7,0.5-18.3,12.6-43.6,19C290.6,178.9,290.3,179,289.9,179"/>
	<path class="st0" d="M273.7,208.1c-2.4,0-4.4-1.9-4.5-4.3c-0.1-2.5,1.8-4.6,4.3-4.7c22.3-1.2,35.3-8.4,35.4-8.4
		c2.2-1.2,4.9-0.5,6.1,1.7c1.2,2.2,0.5,4.9-1.7,6.1c-0.6,0.3-14.8,8.3-39.4,9.6C273.8,208.1,273.8,208.1,273.7,208.1"/>
	<path class="st0" d="M156.1,249.3c-0.3,0-0.7,0-1,0c-6-0.6-10.6-5.8-10.4-12l1.4-52.6c0-1.7-0.8-3.2-2.1-4
		c-4.2-2.4-6.8-6.9-6.8-11.8v-25.6c0-2.5,2-4.5,4.5-4.5c2.5,0,4.5,2,4.5,4.5v25.6c0,1.7,0.9,3.2,2.3,4c4.2,2.4,6.7,7,6.6,12
		l-1.4,52.6c0,1.5,1,2.7,2.2,2.8c1,0.1,1.6-0.4,1.9-0.7c0.3-0.3,0.8-0.9,0.8-1.9l-1.4-52.9c-0.1-5,2.4-9.6,6.6-12
		c1.4-0.8,2.3-2.3,2.3-4v-25.6c0-2.5,2-4.5,4.5-4.5c2.5,0,4.5,2,4.5,4.5v25.6c0,4.8-2.6,9.3-6.8,11.8c-1.4,0.8-2.2,2.3-2.1,4
		l1.4,52.9c0.1,3.3-1.2,6.4-3.6,8.7C161.8,248.2,159,249.3,156.1,249.3"/>
	<path class="st0" d="M196.1,144.8c-5.5,0-10.1,6.5-10.1,14.3c0,4.9,1.8,9.5,4.9,12.2c2.7,2.4,4.2,5.8,4.1,9.3l-1.5,56.7
		c0,1.6,1,2.9,2.4,3c1.1,0.1,1.8-0.4,2.1-0.7c0.3-0.3,0.9-1,0.8-2l-1.6-57c-0.1-3.6,1.4-7,4.1-9.4c3.1-2.7,4.9-7.2,4.9-12.1
		C206.2,151.3,201.6,144.8,196.1,144.8 M196.1,249.3c-0.4,0-0.7,0-1.1,0c-6.1-0.6-10.7-5.9-10.6-12.2l1.5-56.7c0-0.9-0.4-1.7-1-2.3
		c-5-4.3-8-11.4-8-18.9c0-12.8,8.6-23.3,19.1-23.3c10.5,0,19.1,10.4,19.1,23.3c0,7.5-3,14.6-8,18.9c-0.7,0.6-1.1,1.4-1,2.3l1.6,57
		c0.1,3.3-1.2,6.5-3.7,8.8C201.9,248.2,199,249.3,196.1,249.3"/>
	<path class="st0" d="M156.1,169.6c-2.5,0-4.5-2-4.5-4.5v-21.9c0-2.5,2-4.5,4.5-4.5c2.5,0,4.5,2,4.5,4.5v21.9
		C160.6,167.6,158.6,169.6,156.1,169.6"/>
	<path class="st0" d="M90.2,81.8c-1,0-2-0.3-2.8-1l-7-5.7c-1.9-1.6-2.2-4.4-0.7-6.3c1.6-1.9,4.4-2.2,6.3-0.7l7,5.7
		c1.9,1.6,2.2,4.4,0.7,6.3C92.8,81.2,91.5,81.8,90.2,81.8"/>
	<path class="st0" d="M64.6,61.1c-1,0-2-0.3-2.8-1l-7-5.7c-1.9-1.6-2.2-4.4-0.7-6.3c1.6-1.9,4.4-2.2,6.3-0.7l7,5.7
		c1.9,1.6,2.2,4.4,0.7,6.3C67.2,60.5,65.9,61.1,64.6,61.1"/>
	<path class="st0" d="M90.2,36.1c-1,0-2-0.3-2.8-1l-7-5.7c-1.9-1.6-2.2-4.4-0.7-6.3c1.6-1.9,4.4-2.2,6.3-0.7l7,5.7
		c1.9,1.6,2.2,4.4,0.7,6.3C92.8,35.6,91.5,36.1,90.2,36.1"/>
	<path class="st0" d="M64.6,15.4c-1,0-2-0.3-2.8-1l-7-5.7c-1.9-1.6-2.2-4.4-0.7-6.3c1.6-1.9,4.4-2.2,6.3-0.7l7,5.7
		c1.9,1.6,2.2,4.4,0.7,6.3C67.2,14.8,65.9,15.4,64.6,15.4"/>
	<path class="st0" d="M262.7,81.1c-1.3,0-2.6-0.6-3.5-1.7c-1.6-1.9-1.3-4.8,0.7-6.3l7-5.7c1.9-1.6,4.8-1.3,6.3,0.7
		c1.6,1.9,1.3,4.8-0.7,6.3l-7,5.7C264.7,80.7,263.7,81.1,262.7,81.1"/>
	<path class="st0" d="M288.3,60.3c-1.3,0-2.6-0.6-3.5-1.7c-1.6-1.9-1.3-4.8,0.7-6.3l7-5.7c1.9-1.6,4.8-1.3,6.3,0.7
		c1.6,1.9,1.3,4.8-0.7,6.3l-7,5.7C290.3,60,289.3,60.3,288.3,60.3"/>
	<path class="st0" d="M262.7,35.4c-1.3,0-2.6-0.6-3.5-1.7c-1.6-1.9-1.3-4.8,0.7-6.3l7-5.7c1.9-1.6,4.8-1.3,6.3,0.7
		c1.6,1.9,1.3,4.8-0.7,6.3l-7,5.7C264.7,35.1,263.7,35.4,262.7,35.4"/>
	<path class="st0" d="M288.3,14.6c-1.3,0-2.6-0.6-3.5-1.7c-1.6-1.9-1.3-4.8,0.7-6.3l7-5.7c1.9-1.6,4.8-1.3,6.3,0.7
		c1.6,1.9,1.3,4.8-0.7,6.3l-7,5.7C290.3,14.3,289.3,14.6,288.3,14.6"/>
</g>
</svg>
