<?xml version="1.0" encoding="utf-8"?>
<!-- Generator: Adobe Illustrator 25.2.1, SVG Export Plug-In . SVG Version: 6.00 Build 0)  -->
<svg version="1.1" id="Ebene_1" xmlns="http://www.w3.org/2000/svg" xmlns:xlink="http://www.w3.org/1999/xlink" x="0px" y="0px"
	 viewBox="0 0 281.2 168.4" style="enable-background:new 0 0 281.2 168.4;" xml:space="preserve">
<style type="text/css">
	.st0{clip-path:url(#SVGID_2_);fill:#FFFFFF;}
</style>
<g>
	<defs>
		<rect id="SVGID_1_" width="281.2" height="168.4"/>
	</defs>
	<clipPath id="SVGID_2_">
		<use xlink:href="#SVGID_1_"  style="overflow:visible;"/>
	</clipPath>
	<path class="st0" d="M137.3,111.7c5.7,0,11.5,2.4,15.7,6.6l0.3,0.3c2.5,2.5,3.3,6.3,2.1,9.8c-0.8,2.4-0.3,5.7,2.7,7.7
		c2.1,1.4,4.9,1.4,7.1,0.1c3.1-2,3.7-5.4,2.8-7.9c-0.4-1.3-0.1-2.7,0.8-3.7c1-1,2.4-1.3,3.7-0.8c2.5,0.9,5.9,0.3,7.9-2.8
		c1.3-2.1,1.3-5-0.1-7.1c-2-3-5.3-3.5-7.7-2.7c-3.6,1.2-7.3,0.4-9.9-2.1l-0.3-0.3c-4.9-4.9-7.3-11.8-6.4-18.5
		c0.8-5.8,0.8-17-7.9-26.6c-4.8-5.3-11.1-8-18.2-7.8c-15.8,0.2-29.4,13.7-29.6,29.6c-0.1,7.3,2.5,13.4,7.8,18.2
		c9.6,8.7,20.8,8.7,26.6,7.9C135.4,111.8,136.3,111.7,137.3,111.7 M161.6,144.3c-2.7,0-5.3-0.8-7.5-2.2c-5.3-3.5-7.5-10-5.4-15.9
		c0.1-0.4,0.5-1.7-0.4-2.5l-0.3-0.3c-3.4-3.4-8-5-12.5-4.4c-5.7,0.8-20.2,1.4-32.3-9.7C96.3,102.9,92.9,95,93,85.6
		c0.2-19.9,16.6-36.3,36.5-36.5c0.2,0,0.3,0,0.5,0c9.2,0,16.9,3.4,23.1,10.1c11.1,12.1,10.5,26.7,9.7,32.3
		c-0.6,4.5,1.1,9.1,4.4,12.5l0.3,0.3c0.9,0.9,2.2,0.5,2.5,0.4c6-2.1,12.4,0.1,15.9,5.4c2.9,4.4,3,10.3,0.2,14.8
		c-2.5,3.9-6.6,6.2-10.9,6.5c-0.2,4.4-2.6,8.5-6.5,10.9C166.6,143.7,164.1,144.3,161.6,144.3"/>
	<path class="st0" d="M111.9,75.6c-0.9,0-1.8-0.3-2.5-1c-1.4-1.4-1.4-3.6,0-5c6-6,12.2-9,18.9-9.1c7.3-0.1,13.4,2.5,18.2,7.8
		c1.3,1.4,1.2,3.7-0.2,5c-1.4,1.3-3.7,1.2-5-0.2c-3.4-3.8-7.7-5.4-12.9-5.5c-4.8,0.1-9.3,2.4-14,7C113.8,75.3,112.8,75.6,111.9,75.6
		"/>
	<path class="st0" d="M148.8,122.9c-0.9,0-1.8-0.3-2.5-1c-1.4-1.4-1.4-3.6,0-5l14.5-14.5c1.4-1.4,3.6-1.4,5,0c1.4,1.4,1.4,3.6,0,5
		l-14.5,14.5C150.6,122.5,149.7,122.9,148.8,122.9"/>
	<path class="st0" d="M202.8,38.6c-1.1,0-2,0.9-2,2c0,1.1,0.9,2,2,2c1.1,0,2-0.9,2-2C204.7,39.5,203.8,38.6,202.8,38.6 M202.8,49.6
		c-5,0-9.1-4.1-9.1-9.1c0-5,4.1-9.1,9.1-9.1c5,0,9.1,4.1,9.1,9.1C211.8,45.6,207.7,49.6,202.8,49.6"/>
	<path class="st0" d="M217.3,65.1c-1.1,0-2,0.9-2,2c0,1.1,0.9,2,2,2c1.1,0,2-0.9,2-2C219.3,66,218.4,65.1,217.3,65.1 M217.3,76.1
		c-5,0-9.1-4.1-9.1-9.1c0-5,4.1-9.1,9.1-9.1c5,0,9.1,4.1,9.1,9.1C226.4,72,222.3,76.1,217.3,76.1"/>
	<path class="st0" d="M247,61.8c-0.5,0-0.9,0.4-0.9,0.9c0,1,1.7,1,1.7,0C247.9,62.2,247.5,61.8,247,61.8 M247,70.6
		c-4.4,0-8-3.6-8-7.9c0-4.4,3.6-7.9,8-7.9c4.4,0,7.9,3.6,7.9,7.9C255,67,251.4,70.6,247,70.6"/>
	<path class="st0" d="M231.6,36.8c-0.8,0-1.4,0.6-1.4,1.4c0,0.8,0.6,1.4,1.4,1.4c0.8,0,1.4-0.6,1.4-1.4
		C233,37.4,232.4,36.8,231.6,36.8 M231.6,46.7c-4.7,0-8.5-3.8-8.5-8.5c0-4.7,3.8-8.5,8.5-8.5c4.7,0,8.5,3.8,8.5,8.5
		C240.1,42.9,236.3,46.7,231.6,46.7"/>
	<path class="st0" d="M225.2,89.1c-0.6,0-1.1,0.5-1.1,1.1s0.5,1.1,1.1,1.1c0.6,0,1.1-0.5,1.1-1.1S225.8,89.1,225.2,89.1 M225.2,98.3
		c-4.5,0-8.2-3.7-8.2-8.2c0-4.5,3.7-8.2,8.2-8.2c4.5,0,8.2,3.7,8.2,8.2C233.3,94.7,229.7,98.3,225.2,98.3"/>
	<path class="st0" d="M231.6,66.2c-2,0-3.5-1.6-3.5-3.5v-2.4c0-1.6-1.3-2.9-2.9-2.9c-2,0-3.5-1.6-3.5-3.5s1.6-3.5,3.5-3.5
		c5.5,0,10,4.5,10,10v2.4C235.1,64.6,233.6,66.2,231.6,66.2"/>
	<path class="st0" d="M236.9,88c-2,0-3.5-1.6-3.5-3.5c0-2,1.6-3.5,3.5-3.5c1.6,0,2.9-1.3,2.9-2.9v-2.4c0-2,1.6-3.5,3.5-3.5
		c2,0,3.5,1.6,3.5,3.5v2.4C246.9,83.6,242.4,88,236.9,88"/>
	<path class="st0" d="M217.3,41.2c-2,0-3.5-1.6-3.5-3.5v-2.4c0-1.6-1.3-2.9-2.9-2.9c-2,0-3.5-1.6-3.5-3.5s1.6-3.5,3.5-3.5
		c5.5,0,10,4.5,10,10v2.4C220.9,39.6,219.3,41.2,217.3,41.2"/>
	<path class="st0" d="M24.6,69.7l8.6,4.4c0.7,0.3,1.2,0.9,1.6,1.6l4.4,8.6l3.3-7.3c1.7-3.8,4.8-6.7,8.8-8.2
		c3.4-1.3,9.1-4.3,16.6-11.2C79.4,47,82,32.5,82.6,26.3c-6.3,0.6-20.7,3.2-31.3,14.7c-6.9,7.5-9.9,13.2-11.2,16.6
		c-1.5,3.9-4.4,7.1-8.2,8.8L24.6,69.7z M39.4,96c-1.3,0-2.6-0.8-3.2-1.9L29,79.8l-14.2-7.2c-1.2-0.6-2-1.9-1.9-3.2
		c0-1.4,0.8-2.6,2.1-3.1l14-6.3c2.1-0.9,3.6-2.6,4.5-4.8c1.5-4,5-10.5,12.6-18.9c12.6-13.7,29.7-16.5,36.5-17.1
		c1.9-0.2,3.9,0.5,5.3,1.9c1.4,1.4,2.1,3.3,1.9,5.2c-0.6,6.8-3.4,23.9-17.1,36.5c-8.4,7.7-14.9,11.1-18.9,12.6
		c-2.2,0.8-3.9,2.4-4.8,4.5l-6.3,14C42,95.1,40.8,96,39.4,96L39.4,96z"/>
	<path class="st0" d="M82.2,46.3c-0.5,0-1.1-0.1-1.6-0.4c-7.6-3.8-13.9-10-17.7-17.7c-0.9-1.8-0.1-3.9,1.6-4.7
		c1.8-0.9,3.9-0.1,4.7,1.6c3.1,6.2,8.2,11.4,14.5,14.5c1.8,0.9,2.5,3,1.6,4.7C84.7,45.6,83.5,46.3,82.2,46.3"/>
	<path class="st0" d="M140.8,32.6c-35.5,0-64.4,28.9-64.4,64.4c0,35.5,28.9,64.4,64.4,64.4s64.4-28.9,64.4-64.4
		C205.2,61.4,176.3,32.6,140.8,32.6 M140.8,168.4c-39.4,0-71.5-32.1-71.5-71.5c0-39.4,32.1-71.5,71.5-71.5s71.5,32.1,71.5,71.5
		C212.3,136.4,180.3,168.4,140.8,168.4"/>
	<path class="st0" d="M60.7,7.1C31.1,7.1,7.1,31.1,7.1,60.7s24.1,53.6,53.6,53.6c3.5,0,7-0.4,10.6-1.1c-1.2-5.3-1.9-10.8-1.9-16.3
		c0-26.3,14.7-50.6,37.7-63C97.5,17.3,80,7.1,60.7,7.1 M60.7,121.4C27.2,121.4,0,94.2,0,60.7C0,27.2,27.2,0,60.7,0
		c23.2,0,44.1,13,54.4,33.9c0.4,0.9,0.5,1.8,0.2,2.7c-0.3,0.9-1,1.6-1.8,2c-22.5,10.6-37,33.5-37,58.3c0,6,0.9,12.1,2.5,17.9
		c0.3,0.9,0.2,1.9-0.3,2.7c-0.5,0.8-1.2,1.4-2.2,1.7C71.2,120.7,65.9,121.4,60.7,121.4"/>
	<path class="st0" d="M17.8,55c-0.2,0-0.5,0-0.8-0.1c-1.9-0.4-3.1-2.3-2.7-4.2C17.9,34,30.4,20.6,46.9,15.8c1.9-0.6,3.8,0.5,4.4,2.4
		c0.5,1.9-0.5,3.8-2.4,4.4c-14,4.1-24.6,15.4-27.7,29.6C20.9,53.9,19.4,55,17.8,55"/>
	<path class="st0" d="M210.4,113.3c3.4,0.7,6.8,1,10.1,1c29.6,0,53.6-24.1,53.6-53.6s-24-53.6-53.6-53.6
		c-19.3,0-36.7,10.1-46.3,26.7c23.2,12.3,38.1,36.7,38.1,63.2C212.3,102.4,211.7,107.9,210.4,113.3 M220.5,121.4
		c-5,0-10.2-0.7-15.4-2c-0.9-0.2-1.7-0.8-2.2-1.7c-0.5-0.8-0.6-1.8-0.3-2.7c1.7-5.9,2.6-11.9,2.6-18c0-25-14.7-47.9-37.3-58.4
		c-0.9-0.4-1.5-1.1-1.9-2c-0.3-0.9-0.3-1.9,0.2-2.7C176.6,12.9,197.4,0,220.5,0c33.5,0,60.7,27.2,60.7,60.7
		C281.2,94.2,254,121.4,220.5,121.4"/>
	<path class="st0" d="M212.3,98.5c2.5,0.5,5.1,0.8,7.6,0.8c21.3,0,38.6-17.3,38.6-38.6c0-10.3-4-20-11.3-27.3
		c-7.3-7.3-17-11.3-27.3-11.3c-13.9,0-26.8,7.6-33.6,19.7c16.6,13.6,26,33.6,26,55.2C212.3,97.5,212.3,98,212.3,98.5 M219.9,106.4
		c-4,0-8.1-0.6-12.2-1.7c-1.6-0.4-2.7-2-2.6-3.6c0.1-1.4,0.1-2.7,0.1-4.1c0-20.3-9.3-39.1-25.6-51.4c-1.3-1-1.8-2.8-1.1-4.3
		c7.5-15.9,23.7-26.2,41.3-26.2c12.2,0,23.7,4.8,32.3,13.4c8.6,8.6,13.4,20.1,13.4,32.3C265.5,85.9,245.1,106.4,219.9,106.4"/>
</g>
</svg>
